<!DOCTYPE svg PUBLIC "-//W3C//DTD SVG 1.1//EN" "http://www.w3.org/Graphics/SVG/1.1/DTD/svg11.dtd">
<!-- Uploaded to: SVG Repo, www.svgrepo.com, Transformed by: SVG Repo Mixer Tools -->
<svg fill="#f20707" version="1.1" id="Layer_1" xmlns="http://www.w3.org/2000/svg" xmlns:xlink="http://www.w3.org/1999/xlink" viewBox="0 0 300 300" xml:space="preserve" width="800px" height="800px" stroke="#f20707" stroke-width="1.8" transform="rotate(0)matrix(1, 0, 0, 1, 0, 0)">
<g id="SVGRepo_bgCarrier" stroke-width="0"/>
<g id="SVGRepo_tracerCarrier" stroke-linecap="round" stroke-linejoin="round" stroke="#CCCCCC" stroke-width="3"/>
<g id="SVGRepo_iconCarrier"> <g> <g> <g> <path d="M275.806,208.065H48.387V77.419c0-8.003-6.513-14.516-14.516-14.516c-8.003,0-14.516,6.513-14.516,14.516v131.134 C8.327,210.803,0,220.577,0,232.258v29.032c0,9.895,5.985,18.397,14.516,22.142v6.89c0,5.337,4.34,9.677,9.677,9.677h19.355 c5.337,0,9.677-4.34,9.677-9.677v-4.839h188.71v4.839c0,5.337,4.34,9.677,9.677,9.677h19.355c5.337,0,9.677-4.34,9.677-9.677 v-5.327C291.673,282.745,300,272.977,300,261.29v-29.032C300,218.918,289.147,208.065,275.806,208.065z M33.871,72.581 c2.666,0,4.839,2.173,4.839,4.839v130.645h-9.677V77.419h-0.001C29.032,74.753,31.205,72.581,33.871,72.581z M43.549,290.323 h-0.001H24.194v-4.839h19.355V290.323z M270.968,290.323h-19.355v-4.839h19.355V290.323z M290.323,261.29 c0,8.003-6.513,14.516-14.516,14.516h-33.871H53.226H24.194c-8.003,0-14.516-6.513-14.516-14.516v-29.032 c0-8.003,6.513-14.516,14.516-14.516h24.194h227.419c8.003,0,14.516,6.513,14.516,14.516V261.29z"/> <path d="M96.774,227.419H29.032c-5.337,0-9.677,4.34-9.677,9.677v19.355c0,5.337,4.34,9.677,9.677,9.677h67.742 c5.337,0,9.677-4.34,9.677-9.677v-19.355C106.452,231.76,102.111,227.419,96.774,227.419z M29.032,256.452v-19.355h67.742 l0.005,19.355H29.032z"/> <rect x="270.968" y="241.935" width="9.677" height="9.677"/> <rect x="251.613" y="241.935" width="9.677" height="9.677"/> <rect x="232.258" y="241.935" width="9.677" height="9.677"/> <rect x="212.903" y="241.935" width="9.677" height="9.677"/> <path d="M96.774,125.806c8.003,0,14.516-6.513,14.516-14.516s-6.513-14.516-14.516-14.516s-14.516,6.513-14.516,14.516 S88.771,125.806,96.774,125.806z M96.774,106.453c2.666,0,4.839,2.173,4.839,4.839c0,2.666-2.173,4.839-4.839,4.839 c-2.666,0-4.839-2.173-4.839-4.839C91.935,108.625,94.108,106.453,96.774,106.453z"/> <path d="M125.806,111.29h9.677c0-21.344-17.366-38.71-38.71-38.71v9.677C112.785,82.258,125.806,95.279,125.806,111.29z"/> <path d="M150,111.29h9.677c0-34.684-28.219-62.903-62.903-62.903v9.677C126.121,58.065,150,81.944,150,111.29z"/> <path d="M174.194,111.29h9.677c0-48.024-39.073-87.097-87.097-87.097v9.677C139.461,33.871,174.194,68.603,174.194,111.29z"/> <path d="M198.387,111.29h9.677C208.065,49.927,158.139,0,96.774,0v9.677C152.806,9.677,198.387,55.258,198.387,111.29z"/> </g> </g> </g> </g>
</svg>