<!DOCTYPE svg PUBLIC "-//W3C//DTD SVG 1.1//EN" "http://www.w3.org/Graphics/SVG/1.1/DTD/svg11.dtd">
<!-- Uploaded to: SVG Repo, www.svgrepo.com, Transformed by: SVG Repo Mixer Tools -->
<svg fill="#fb0e0e" height="800px" width="800px" version="1.1" id="Layer_1" xmlns="http://www.w3.org/2000/svg" xmlns:xlink="http://www.w3.org/1999/xlink" viewBox="0 0 512 512" xml:space="preserve">
<g id="SVGRepo_bgCarrier" stroke-width="0"/>
<g id="SVGRepo_tracerCarrier" stroke-linecap="round" stroke-linejoin="round" stroke="#CCCCCC" stroke-width="4.096"> <g> <g> <path d="M391.099,220.7c-3.531-6.929-11.179-10.903-20.984-10.903h-86.442l25.656-188.011c1.147-8.418,0.18-13.866-3.136-17.663 C303.904,1.503,300.615,0,297.165,0c-7.393,0-12.253,6.291-15.661,11.771L123.353,266.078c-5.087,8.186-5.81,16.828-1.984,23.708 c3.825,6.882,11.549,10.828,21.191,10.828h74.117l-42.777,188.632c-1.312,5.785-2.288,13.089,1.855,18.278 c2.271,2.843,5.653,4.474,9.283,4.475c0.001,0,0.001,0,0.002,0c6.896,0,11.92-5.696,15.528-10.657L387.59,244.078 C393.349,236.148,394.628,227.628,391.099,220.7z M370.683,231.793L200.678,465.647l39.271-173.171 c0.702-3.099-0.043-6.349-2.025-8.831c-1.983-2.483-4.987-3.929-8.165-3.929h-87.2c-1.179,0-2.025-0.135-2.574-0.28 c0.166-0.541,0.497-1.328,1.116-2.325L284.964,45.783l-23.616,173.051c-0.409,2.99,0.497,6.01,2.481,8.284 c1.984,2.273,4.855,3.578,7.872,3.578h98.414c0.474,0,0.893,0.02,1.26,0.053C371.188,231.063,370.96,231.412,370.683,231.793z"/> </g> </g> <g> <g> <path d="M238.566,168.115c-4.91-3.033-11.349-1.512-14.382,3.397l-48.689,78.808c-3.032,4.909-1.511,11.348,3.398,14.381 c1.712,1.057,3.608,1.561,5.482,1.561c3.501,0,6.922-1.761,8.9-4.958l48.689-78.808 C244.997,177.587,243.475,171.148,238.566,168.115z"/> </g> </g> <g> <g> <path d="M258.288,136.188c-4.911-3.034-11.349-1.512-14.382,3.396l-2.555,4.135c-3.033,4.91-1.513,11.349,3.396,14.382 c1.712,1.058,3.609,1.562,5.483,1.562c3.501,0,6.922-1.76,8.899-4.958l2.555-4.135 C264.717,145.66,263.197,139.221,258.288,136.188z"/> </g> </g> </g>
<g id="SVGRepo_iconCarrier"> <g> <g> <path d="M391.099,220.7c-3.531-6.929-11.179-10.903-20.984-10.903h-86.442l25.656-188.011c1.147-8.418,0.18-13.866-3.136-17.663 C303.904,1.503,300.615,0,297.165,0c-7.393,0-12.253,6.291-15.661,11.771L123.353,266.078c-5.087,8.186-5.81,16.828-1.984,23.708 c3.825,6.882,11.549,10.828,21.191,10.828h74.117l-42.777,188.632c-1.312,5.785-2.288,13.089,1.855,18.278 c2.271,2.843,5.653,4.474,9.283,4.475c0.001,0,0.001,0,0.002,0c6.896,0,11.92-5.696,15.528-10.657L387.59,244.078 C393.349,236.148,394.628,227.628,391.099,220.7z M370.683,231.793L200.678,465.647l39.271-173.171 c0.702-3.099-0.043-6.349-2.025-8.831c-1.983-2.483-4.987-3.929-8.165-3.929h-87.2c-1.179,0-2.025-0.135-2.574-0.28 c0.166-0.541,0.497-1.328,1.116-2.325L284.964,45.783l-23.616,173.051c-0.409,2.99,0.497,6.01,2.481,8.284 c1.984,2.273,4.855,3.578,7.872,3.578h98.414c0.474,0,0.893,0.02,1.26,0.053C371.188,231.063,370.96,231.412,370.683,231.793z"/> </g> </g> <g> <g> <path d="M238.566,168.115c-4.91-3.033-11.349-1.512-14.382,3.397l-48.689,78.808c-3.032,4.909-1.511,11.348,3.398,14.381 c1.712,1.057,3.608,1.561,5.482,1.561c3.501,0,6.922-1.761,8.9-4.958l48.689-78.808 C244.997,177.587,243.475,171.148,238.566,168.115z"/> </g> </g> <g> <g> <path d="M258.288,136.188c-4.911-3.034-11.349-1.512-14.382,3.396l-2.555,4.135c-3.033,4.91-1.513,11.349,3.396,14.382 c1.712,1.058,3.609,1.562,5.483,1.562c3.501,0,6.922-1.76,8.899-4.958l2.555-4.135 C264.717,145.66,263.197,139.221,258.288,136.188z"/> </g> </g> </g>
</svg>