<svg xmlns="http://www.w3.org/2000/svg" xmlns:xlink="http://www.w3.org/1999/xlink" width="316" height="112"><defs><linearGradient id="a" x1="66" y1="90" x2="102" y2="90" gradientUnits="userSpaceOnUse"><stop offset="0" stop-color="#bdc1c6" stop-opacity="0"/><stop offset=".137" stop-color="#bdc1c6" stop-opacity=".021"/><stop offset=".279" stop-color="#bdc1c6" stop-opacity=".084"/><stop offset=".424" stop-color="#bdc1c6" stop-opacity=".189"/><stop offset=".57" stop-color="#bdc1c6" stop-opacity=".336"/><stop offset=".718" stop-color="#bdc1c6" stop-opacity=".525"/><stop offset=".864" stop-color="#bdc1c6" stop-opacity=".753"/><stop offset="1" stop-color="#bdc1c6"/></linearGradient><linearGradient id="b" data-name="Linear ground shadow - light-B" x1="224" y1="110" x2="246" y2="110" xlink:href="#a"/><linearGradient id="c" data-name="Linear ground shadow - light-B" x1="26" y1="110" x2="58" y2="110" xlink:href="#a"/><linearGradient id="d" x1="65.992" y1="70" x2="65.992" y2="112" gradientUnits="userSpaceOnUse"><stop offset="0" stop-color="#669df6"/><stop offset=".094" stop-color="#669df6" stop-opacity=".826"/><stop offset=".225" stop-color="#669df6" stop-opacity=".61"/><stop offset=".358" stop-color="#669df6" stop-opacity=".423"/><stop offset=".49" stop-color="#669df6" stop-opacity=".27"/><stop offset=".621" stop-color="#669df6" stop-opacity=".152"/><stop offset=".75" stop-color="#669df6" stop-opacity=".068"/><stop offset=".877" stop-color="#669df6" stop-opacity=".017"/><stop offset="1" stop-color="#669df6" stop-opacity="0"/></linearGradient><linearGradient id="e" x1="260" y1="112" x2="260" y2="80" gradientUnits="userSpaceOnUse"><stop offset="0" stop-color="#f29900"/><stop offset="1" stop-color="#f29900" stop-opacity="0"/></linearGradient><linearGradient id="f" x1="269" y1="80" x2="269" y2="112" gradientUnits="userSpaceOnUse"><stop offset="0" stop-color="#fdd663"/><stop offset=".107" stop-color="#fdd663" stop-opacity=".803"/><stop offset=".236" stop-color="#fdd663" stop-opacity=".593"/><stop offset=".367" stop-color="#fdd663" stop-opacity=".411"/><stop offset=".497" stop-color="#fdd663" stop-opacity=".263"/><stop offset=".626" stop-color="#fdd663" stop-opacity=".148"/><stop offset=".754" stop-color="#fdd663" stop-opacity=".066"/><stop offset=".879" stop-color="#fdd663" stop-opacity=".017"/><stop offset="1" stop-color="#fdd663" stop-opacity="0"/></linearGradient></defs><g style="isolation:isolate"><path fill="url(#a)" style="mix-blend-mode:multiply" d="M66 88h36v4H66z"/><rect x="99" y="21" width="118" height="70" rx="3" fill="#fff"/><path d="M214 22a2.002 2.002 0 012 2v64a2.002 2.002 0 01-2 2H102a2.002 2.002 0 01-2-2V24a2.002 2.002 0 012-2h112m0-2H102a4 4 0 00-4 4v64a4 4 0 004 4h112a4 4 0 004-4V24a4 4 0 00-4-4z" fill="#e8eaed"/><path fill="url(#b)" style="mix-blend-mode:multiply" d="M224 108h22v4h-22z"/><path fill="url(#c)" style="mix-blend-mode:multiply" d="M26 108h32v4H26z"/><rect x="82" y="32" width="108" height="32" rx="4" fill="#4285f4"/><rect x="126" y="48" width="108" height="32" rx="5.367" fill="#f1f3f4"/><rect x="216" y="54" width="2" height="20" rx="1" fill="#ea4335"/><path fill="none" d="M138 56h16v16h-16z"/><path fill="#1a73e8" d="M138 62.75h16v2.5h-16z"/><path fill="#1a73e8" d="M143.083 56.447l8 13.856-2.166 1.25-8-13.856z"/><path fill="#1a73e8" d="M151.083 57.697l-8 13.856-2.166-1.25 8-13.856z"/><path fill="none" d="M164 56h16v16h-16z"/><path fill="#1a73e8" d="M164 62.75h16v2.5h-16z"/><path fill="#1a73e8" d="M169.083 56.447l8 13.856-2.166 1.25-8-13.856z"/><path fill="#1a73e8" d="M177.083 57.697l-8 13.856-2.166-1.25 8-13.856z"/><path fill="none" d="M190 56h16v16h-16z"/><path fill="#1a73e8" d="M190 62.75h16v2.5h-16z"/><path fill="#1a73e8" d="M195.083 56.447l8 13.856-2.166 1.25-8-13.856z"/><path fill="#1a73e8" d="M203.083 57.697l-8 13.856-2.166-1.25 8-13.856z"/><rect x="98" y="38" width="2" height="20" rx="1" fill="#fff"/><path d="M180 22V10m-52.343 25.657L118 26m114.343 9.657L242 26" fill="none" stroke="#fbbc04" stroke-linecap="round" stroke-miterlimit="10" stroke-width="3"/><path d="M57.984 112a27.497 27.497 0 0015.67-21.27A41.143 41.143 0 0074 86.147V75l-16-5-16 5v11.147a41.143 41.143 0 00.346 4.583A27.43 27.43 0 0057.985 112z" fill="#4285f4"/><path d="M57.984 112a27.497 27.497 0 0015.67-21.27A41.143 41.143 0 0074 86.147V75l-16-5z" fill="url(#d)" style="mix-blend-mode:lighten" data-name="Shape"/><rect x="242" y="80" width="36" height="32" rx="4" fill="#fbbc04"/><path d="M250 80v-7a10 10 0 0110-10h0a10 10 0 0110 10v7" fill="none" stroke="#9aa0a6" stroke-miterlimit="10" stroke-width="3"/><rect x="242" y="80" width="36" height="32" rx="4" opacity=".5" fill="url(#e)" style="mix-blend-mode:multiply"/><path d="M274 112a4 4 0 004-4V84a4 4 0 00-4-4h-14v32z" fill="url(#f)" style="mix-blend-mode:lighten"/><path fill="none" d="M0 0h316v112H0z"/><path d="M260 25.971a3.637 3.637 0 014.265-3.602 10.972 10.972 0 0119.47-2.519A6.4 6.4 0 01292 25.971m-6.4-6.4a6.38 6.38 0 00-4.526 1.875m-14.831 1.939a3.646 3.646 0 00-2.586-1.07M20 38a9.29 9.29 0 0117-5.184A5.419 5.419 0 0144 38m-5.42-5.42a5.402 5.402 0 00-3.831 1.588M76 16a9.29 9.29 0 00-17-5.184A5.419 5.419 0 0052 16m5.42-5.42a5.402 5.402 0 013.831 1.588" fill="none" stroke="#e8eaed" stroke-linecap="round" stroke-miterlimit="10" stroke-width="2"/></g></svg>